<?xml version="1.0" encoding="UTF-8" standalone="no"?>
<svg
   xmlns:dc="http://purl.org/dc/elements/1.1/"
   xmlns:cc="http://creativecommons.org/ns#"
   xmlns:rdf="http://www.w3.org/1999/02/22-rdf-syntax-ns#"
   xmlns:svg="http://www.w3.org/2000/svg"
   xmlns="http://www.w3.org/2000/svg"
   version="1.1"
   x="0px"
   y="0px"
   width="104.99999"
   height="105.00099"
   viewBox="0 0 104.99999 105.00099"
   enable-background="new 0 0 881.03082 550.30859"
   xml:space="preserve"
   id="svg295"><metadata
   id="metadata301"><rdf:RDF><cc:Work
       rdf:about=""><dc:format>image/svg+xml</dc:format><dc:type
         rdf:resource="http://purl.org/dc/dcmitype/StillImage" /><dc:title></dc:title></cc:Work></rdf:RDF></metadata><defs
   id="defs299">
	
	
</defs>

<g
   transform="matrix(0.76694694,0,0,0.76694694,-161.35748,-34.21843)"
   id="g35">
		<g
   id="XMLID_1_">
			<g
   id="g30">
				<rect
   style="fill:#f9d015"
   id="rect20"
   height="10"
   width="27"
   y="100.1416"
   x="276.5303" />
				<path
   style="fill:#293a56"
   id="path22"
   d="m 320.0303,85.1416 v 62 c 0,1.6602 -1.33981,3 -3,3 h -74 c -1.6602,0 -3,-1.3398 -3,-3 v -58 c 0,-0.7598 0.28999,-1.5 0.81009,-2.0498 l 15,-16 c 0.56979,-0.6104 1.3598,-0.9502 2.18991,-0.9502 h 52 c 1.66019,0 3,1.3398 3,3 v 9 h 4 c 1.66019,0 3,1.3398 3,3 z m -6,59 v -56 h -49.3301 v 15.6699 c 0,1.6504 -1.3501,3 -3,3 h -15.6699 v 37.3301 z m -7,-62 v -6 h -47.7002 l -13.2998,14.1899 v 6.23 l 13.5498,-13.54 c 0.56009,-0.5596 1.32028,-0.8799 2.12009,-0.8799 z m -48.3301,18.6699 v -8.4297 l -8.4297,8.4297 z" />
				<path
   style="fill:#293a56"
   id="path24"
   d="m 309.5303,97.1416 v 16 c 0,1.6602 -1.33981,3 -3,3 h -33 c -1.66022,0 -3,-1.3398 -3,-3 v -16 c 0,-1.6602 1.33978,-3 3,-3 h 33 c 1.66019,0 3,1.3398 3,3 z m -6,13 v -10 h -27 v 10 z" />
				<path
   style="fill:#293a56"
   id="path26"
   d="m 306.5303,122.1416 c 1.66019,0 3,1.3398 3,3 0,1.6602 -1.33981,3 -3,3 h -53 c -1.6602,0 -3,-1.3398 -3,-3 0,-1.6602 1.3398,-3 3,-3 z" />
				<path
   style="fill:#293a56"
   id="path28"
   d="m 306.5303,133.1416 c 1.66019,0 3,1.3398 3,3 0,1.6602 -1.33981,3 -3,3 h -53 c -1.6602,0 -3,-1.3398 -3,-3 0,-1.6602 1.3398,-3 3,-3 z" />
			</g>
			<g
   id="g32">
			</g>
		</g>
	</g>













</svg>